# xmcd CD database file
#
# Track frame offsets:
#	150
#	7316
#	27670
#	47667
#	71596
#	88131
#	111554
#	127512
#	147410
#	167751
#	190057
#	205780
#
# Disc length: 3170 seconds
#
# Revision: 0
# Processed by: cddbd v1.5.1PL0 Copyright (c) Steve Scherf et al.
# Submitted via: CDex 1.50Beta7
#
DISCID=ad0c600c
DTITLE=Milagros Pinera and Sanmera - Leche Condensada
DYEAR=2005
DGENRE=Salsa
TTITLE0=Sanmera
TTITLE1=Fuera del Pastel
TTITLE2=Tu Cha
TTITLE3=Fijador
TTITLE4=Manana mi Amor
TTITLE5=Pista Falsa
TTITLE6=Si Miento
TTITLE7=Leche Condensada
TTITLE8=Fragilidad
TTITLE9=Muchacho Loco
TTITLE10=Que Pena
TTITLE11=Palo pa rumba
EXTD=YEAR: 2005
EXTT0=
EXTT1=
EXTT2=
EXTT3=
EXTT4=
EXTT5=
EXTT6=
EXTT7=
EXTT8=
EXTT9=
EXTT10=
EXTT11=
PLAYORDER=
